<?xml version="1.0" standalone="no"?><!DOCTYPE svg PUBLIC "-//W3C//DTD SVG 1.1//EN" "http://www.w3.org/Graphics/SVG/1.1/DTD/svg11.dtd"><svg t="1752203715812" class="icon" viewBox="0 0 1024 1024" version="1.1" xmlns="http://www.w3.org/2000/svg" p-id="24852" xmlns:xlink="http://www.w3.org/1999/xlink" width="200" height="200"><path d="M717.027556 483.555556H312.888889s-116.878222 94.776889-135.310222 110.819555C78.222222 680.903111 0 673.109333 0 711.793778V1024h1024v-256L717.027556 483.555556z" fill="#4B545D" p-id="24853"></path><path d="M111.246222 1024c-2.446222-18.346667-7.708444-84.593778 32.739556-143.104 11.804444-17.066667-0.910222-41.870222 64.881778-142.222222 18.090667-27.591111 86.812444-83.285333 105.557333-104.903111 18.744889-21.617778 37.632-96.881778 37.632-96.881778l-42.951111-0.824889s-24.490667 64.682667-44.430222 74.666667c-53.105778 26.595556-108.145778 88.803556-118.528 106.666666-14.449778 24.832-109.283556 154.652444-126.008889 182.158223L0 932.977778V1024h111.246222z m781.169778-403.882667l-262.343111-55.779555 36.977778 105.927111 59.648 29.44c36.864 23.779556 82.346667 37.262222 88.263111 104.277333 1.592889 17.976889-11.093333 81.976889-21.475556 121.201778-8.732444 32.967111 1.621333 59.136-3.242666 98.787556h97.934222c-20.565333-41.301333-32.938667-90.595556-32.625778-96.654223 0.455111-8.789333 8.903111-91.676444 13.653333-138.183111 21.788444 39.196444 59.790222 110.620444 61.155556 134.087111 1.052444 18.176-0.312889 65.621333-1.592889 100.750223H1024V695.125333c0-35.470222-89.742222-36.664889-131.584-75.008z m-446.833778 208.924445c-14.933333 36.892444-6.855111 36.920889-8.704 59.704889-3.783111 46.478222 21.560889 75.463111 21.560889 75.463111s19.029333-39.224889 18.631111-54.869334c-1.905778-70.940444 27.448889-96.028444 23.694222-115.143111-0.028444-0.028444-40.248889-2.019556-55.182222 34.844445z m-140.657778 28.444444c8.561778-14.506667 31.971556-15.445333 44.942223-38.229333 12.970667-22.755556 12.686222-62.094222 26.282666-103.310222 13.596444-41.216 74.183111-67.100444 74.183111-67.100445s-51.086222-72.049778-92.245333-23.125333c-35.328 42.012444-29.326222 119.011556-33.564444 140.145778-4.238222 21.134222-52.110222 83.456-52.110223 83.456s-10.268444 67.754667-8.220444 86.641777c2.019556 18.944 24.206222-50.488889 40.732444-78.478222z m357.461334-46.563555c-10.723556-17.351111-30.236444-39.566222-33.877334-60.131556-4.209778-23.779556-5.774222-36.209778-13.710222-39.224889-7.936-3.015111-22.272 3.356444-32.881778 17.578667-9.870222 13.226667-1.763556 51.968-1.763555 51.968s23.950222 20.764444 39.111111 30.321778c12.913778 8.135111 21.703111 85.703111 24.234667 94.776889 2.503111 9.073778 29.610667-77.937778 18.887111-95.288889z" fill="#292F33" p-id="24854"></path><path d="M456.903111 281.770667c-21.674667 0-142.250667 158.919111-142.250667 158.919111l-4.465777 7.281778-151.096889 162.673777s6.883556 20.963556 19.854222 36.010667c20.792889 24.092444 58.567111-20.167111 84.280889-28.529778 41.329778-13.425778 27.761778 62.065778 54.471111 65.109334 36.181333 4.124444 73.528889-62.122667 99.868444-60.017778 26.339556 2.104889 55.552 75.377778 83.541334 75.377778 41.756444 0 37.233778-55.381333 94.435555-55.381334 27.107556 0 32.455111 31.772444 71.509334 27.079111 30.520889-3.669333 74.552889-68.380444 89.116444-73.870222 32.711111-12.316444 73.955556 41.130667 98.190222 38.570667 24.206222-2.56 18.631111-5.262222 18.631111-5.262222L556.8 279.978667h-18.318222c-14.620444 0-20.935111-0.711111-37.688889-0.711111-11.264 0-37.802667 2.503111-43.889778 2.503111z" fill="#E1E8ED" p-id="24855"></path><path d="M447.146667 378.140444s-52.252444 99.072-57.571556 115.171556c-5.319111 16.099556-17.92 69.603556-17.92 69.603556s25.201778-16.753778 33.735111-29.553778c8.533333-12.8 21.674667-54.215111 31.232-70.371556 9.557333-16.156444 27.107556-33.166222 33.735111-45.397333 6.627556-12.231111 3.982222-72.533333 3.982223-72.533333l-27.164445 33.080888z m-114.915556 35.356445c-13.653333 14.535111-53.646222 68.551111-53.646222 68.551111l-119.978667 128s15.075556 43.349333 33.28 43.832889c18.261333 0.483556 25.315556-42.126222 25.827556-62.293333 0.483556-20.167111 54.869333-53.589333 61.639111-72.931556 6.769778-19.342222 29.838222-25.827556 44.316444-43.150222 14.478222-17.322667 16.753778-41.130667 36.693334-60.216889 50.688-48.412444 23.011556-60.928 23.011555-60.928s-37.546667 44.600889-51.143111 59.136z m213.76 112.270222c-2.929778-31.687111-31.288889-102.172444-31.288889-102.172444s-11.406222 61.269333-12.515555 81.806222c-1.137778 20.536889 5.404444 45.824 11.576889 68.352 6.115556 22.528 23.239111 52.309333 23.239111 52.309333s11.918222-68.579556 8.988444-100.295111z" fill="#AAB8C2" p-id="24856"></path><path d="M580.693333 279.978667H541.013333c-5.404444 0 4.750222 33.052444 0.568889 58.112-4.551111 27.420444 51.797333 87.210667 63.715556 150.954666 2.787556 15.075556 20.337778 94.492444 38.456889 138.097778 17.009778 40.96 23.324444 43.178667 23.324444 43.178667s56.035556-6.4 80.810667-60.416c14.563556-31.772444 121.571556 70.570667 144.526222 10.24 0 0-90.055111-66.161778-175.473778-183.921778-78.364444-108.088889-121.969778-156.245333-136.220444-156.245333z" fill="#CCD6DD" p-id="24857"></path><path d="M633.998222 468.593778c4.494222 21.304889 18.773333 34.816 16.952889 80.497778-1.763556 44.344889 86.698667 80.327111 78.336 88.689777-29.297778 29.354667-62.236444 32.512-62.236444 32.512-9.557333-5.091556-37.376-53.248-43.690667-80.554666-6.314667-27.306667-17.720889-108.003556-25.372444-124.558223-7.651556-16.583111-24.120889-36.323556-33.251556-55.580444-9.130667-19.256889-11.861333-35.441778-11.861333-35.441778s27.363556 10.666667 45.994666 26.624c18.688 15.957333 30.634667 46.478222 35.128889 67.811556z" fill="#AAB8C2" p-id="24858"></path></svg>